<svg xmlns="http://www.w3.org/2000/svg" 
version="1.1"
 xmlns:xlink="http://www.w3.org/1999/xlink" 
 xmlns:svgjs="http://svgjs.dev/svgjs"
 width="308.7612359841165"
   height="304.915625"
    viewBox="0 0 1000 1000">
    <g transform="matrix(1,0,0,1,-0.14221556886212738,-0.14221556886229791)">
      <svg viewBox="0 0 334 334" 
      data-background-color="#90adbb" 
      preserveAspectRatio="xMidYMid meet" 
      height="1000" 
      width="1000" 
      xmlns="http://www.w3.org/2000/svg"
       xmlns:xlink="http://www.w3.org/1999/xlink">
       <g id="tight-bounds" 
       transform="matrix(1,0,0,1,0.04749999999998522,0.04750000000001364)">
       <svg viewBox="0 0 333.90454557049503 333.90454557049503"
        height="333.90454557049503"
         width="333.90454557049503">
         <g><svg></svg></g><g>
            <svg viewBox="0 0 333.90454557049503 333.90454557049503" 
            height="333.90454557049503" width="333.90454557049503">
            <g>
               <path d="M0 166.952c0-92.205 74.747-166.952 166.952-166.952 92.205 0 166.952 74.747 166.953 166.952 0 92.205-74.747 166.952-166.953 166.953-92.205 0-166.952-74.747-166.952-166.953zM166.952 316.63c82.665 0 149.677-67.013 149.678-149.678 0-82.665-67.013-149.677-149.678-149.677-82.665 0-149.677 67.013-149.677 149.677 0 82.665 67.013 149.677 149.677 149.678z"
                data-fill-palette-color="tertiary" 
                fill="#f6f6f6"
                 stroke="transparent">
               </path><ellipse rx="160.27418187383762"
                ry="160.27418187383762" 
                cx="166.95227278524752"
                 cy="166.95227278524752"
                  fill="#f6f6f6" 
                  stroke="transparent"
                   stroke-width="0"
                    fill-opacity="1" 
                    data-fill-palette-color="tertiary">
                  </ellipse></g>
                  <g transform="matrix(1,0,0,1,68.0260206372228,71.17305217166896)">
                     <svg viewBox="0 0 197.85250429604943 191.55844122715712"
                      height="191.55844122715712"
                       width="197.85250429604943">
                       <g>
                        <svg viewBox="0 0 197.85250429604943 191.55844122715712"
                         height="191.55844122715712" 
                         width="197.85250429604943">
                         <g>
                           <svg viewBox="0 0 197.85250429604943 191.55844122715712"
                            height="191.55844122715712" 
                            width="197.85250429604943">
                            <g>
                              <svg viewBox="0 0 197.85250429604943 191.55844122715712" 
                              height="191.55844122715712"
                               width="197.85250429604943">
                               <g id="textblocktransform">
                                 <svg viewBox="0 0 197.85250429604943 191.55844122715712"
                                  height="191.55844122715712"
                                   width="197.85250429604943"
                                    id="textblock">
                                    <g>
                                       <svg viewBox="0 0 197.85250429604943 191.55844122715712"
                                        height="191.55844122715712" 
                                        width="197.85250429604943">
                                        <g transform="matrix(1,0,0,1,0,0)">
                                          <svg width="197.85250429604943"
                                           viewBox="3.549999952316284 -35 36.150001525878906 35"
                                            height="191.55844122715712" 
                                            data-palette-color="#90adbb">
                                            <path d="M8.85 0L3.55 0 3.55-35 9.8-35 21.65-11.7 33.45-35 39.7-35 39.7 0 34.4 0 34.4-25.85 23.7-5 19.6-5 8.85-25.8 8.85 0Z"
                                             opacity="1"
                                              transform="matrix(1,0,0,1,0,0)"
                                               fill="#90adbb"
                                                class="wordmark-text-0" 
                                                data-fill-palette-color="quaternary" 
                                                id="text-0">
                                             </path>
                                          </svg>
                                       </g>
                                    </svg>
                                 </g>
                              </svg>
                           </g>
                        </svg>
                     </g>
                     <g>
                     </g>
                  </svg>
               </g>
            </svg>
        </g>
      </svg>
   </g>
</svg>
</g>
<defs>
</defs>
</svg>
<rect width="333.90454557049503"
      height="333.90454557049503"
      fill="none"
      stroke="none"
                                              visibility="hidden">
                                             </rect>
                                          </g>
                                       </svg>
                                    </g>
                                 </svg>